<svg viewBox="0 0 1109 242" fill="none" xmlns="http://www.w3.org/2000/svg">
<path d="M325.443 82.5049H362.293V93.9619H326.682V203.893C326.682 210.395 332.256 219.376 341.546 219.376C346.81 219.376 353.932 213.491 361.674 202.963L367.867 206.989C356.41 225.569 344.643 238.885 330.708 238.885C310.89 238.885 298.503 225.569 298.503 207.299V93.3428H276.207V82.5049H286.116C292.619 82.5049 318.011 45.036 318.321 37.6035H325.443V82.5049ZM1065.84 82.5049H1102.69V93.9619H1067.07V203.893C1067.07 210.395 1072.65 219.376 1081.94 219.376C1087.2 219.376 1094.33 213.491 1102.07 202.963L1108.26 206.989C1096.8 225.569 1085.03 238.885 1071.1 238.885C1051.28 238.885 1038.89 225.569 1038.89 207.299V93.3428H1016.6V82.5049H1026.51C1033.01 82.5032 1058.4 45.0359 1058.71 37.6035H1065.84V82.5049ZM72.1514 9.11426C90.1118 9.11426 98.7828 18.7139 106.524 18.7139C111.169 18.7137 114.575 15.9266 115.504 12.8301H123.246V70.1182H115.194C114.885 54.0157 91.3502 22.1201 69.9834 22.1201C44.901 22.1204 30.0371 49.3707 30.0371 97.3682C30.0371 171.687 50.1655 222.782 78.0352 222.782C88.5637 222.782 96.9242 216.588 102.188 205.44V133.599C102.188 130.192 95.0661 122.142 92.5889 122.142H82.6797V114.09H148.019V122.142H141.206C138.109 122.142 131.297 130.192 131.297 133.599V235.788H129.749L111.169 218.756C101.569 231.452 87.6348 238.884 70.6035 238.884C28.799 238.884 0 191.815 0 123.999C6.96393e-05 56.4927 29.418 9.11436 72.1514 9.11426ZM215.525 74.7627C249.898 74.7627 274.052 108.826 274.052 156.823C274.052 204.821 249.898 238.884 215.525 238.884C181.153 238.884 156.999 204.821 156.999 156.823C156.999 108.826 181.153 74.7627 215.525 74.7627ZM571.936 74.7627C599.495 74.7627 615.288 91.7942 615.288 120.902V207.299C615.288 211.944 618.694 216.279 622.101 216.279C625.507 216.279 629.533 211.015 633.559 203.273L640.062 206.37C631.081 227.427 622.101 237.646 611.882 237.646C601.663 237.645 592.373 229.594 588.967 218.756C577.819 229.284 565.742 238.884 552.736 238.884C530.75 238.884 516.506 222.163 516.506 196.771C516.506 164.566 540.041 146.605 587.109 124.929V115.019C587.109 97.9873 577.509 86.5303 563.574 86.5303C552.427 86.5304 547.162 92.7236 547.162 99.5361C547.162 102.323 547.782 107.897 547.782 110.993C547.782 118.115 539.731 123.38 529.202 123.38C522.08 123.38 518.054 119.974 518.054 113.78C518.054 93.0329 541.279 74.7627 571.936 74.7627ZM963.956 76.3115C980.368 76.3115 987.801 84.0527 993.994 84.0527C996.471 84.0525 999.258 81.8845 1000.19 79.0977H1006.38V123.999H999.567C998.328 114.399 981.297 87.7686 963.337 87.7686C953.428 87.7686 946.306 93.9619 946.306 103.871C946.306 113.78 953.737 121.212 963.646 128.024L995.852 150.32C1011.33 161.158 1018.46 173.545 1018.46 189.028C1018.46 218.137 998.639 237.336 972.627 237.336C956.834 237.336 947.544 228.975 941.66 228.975C937.944 228.975 934.538 232.072 933.3 235.788H926.487V184.074H933.919C935.158 195.222 953.119 225.878 974.485 225.878C986.562 225.878 995.542 216.279 995.542 201.415C995.542 189.648 988.73 181.287 977.892 173.855L945.687 151.869C930.513 141.65 924.01 130.502 924.01 116.877C924.01 92.104 942.28 76.3117 963.956 76.3115ZM412.769 101.394C426.394 87.4588 442.187 74.1436 458.599 74.1436C478.727 74.1437 493.28 93.6521 493.28 110.993V216.898C493.281 220.305 499.783 228.045 502.261 228.046H509.073V235.788H449.309V228.046H455.812C458.289 228.046 465.101 220.305 465.102 216.898V112.542C465.102 103.252 456.741 94.2716 448.689 94.2715C437.542 94.2715 423.607 104.181 412.769 115.948V216.898C412.769 220.305 419.581 228.046 422.059 228.046H427.941V235.788H369.415V228.046H375.299C377.776 228.046 384.589 220.305 384.589 216.898V37.2939C384.589 32.649 375.918 24.5977 372.512 24.5977H366.319V16.8555C382.422 16.5458 400.072 13.4494 411.22 9.11426H412.769V101.394ZM798.608 74.1436C818.736 74.1436 830.194 90.5555 830.194 107.896V216.898C830.195 220.305 837.007 228.046 839.484 228.046H845.368V235.788H786.842V228.046H792.725C795.202 228.046 802.014 220.305 802.015 216.898V109.445C802.015 100.155 796.75 94.2715 788.699 94.2715C779.1 94.2716 767.643 102.633 757.424 112.852V216.898C757.424 220.305 764.235 228.045 766.713 228.046H772.597V235.788H714.07V228.046H719.954C722.431 228.046 729.244 220.305 729.244 216.898V109.445C729.244 100.155 723.98 94.2716 715.929 94.2715C706.329 94.2715 694.871 102.633 684.652 112.852V216.898C684.653 220.305 691.465 228.046 693.942 228.046H699.826V235.788H641.3V228.046H647.184C649.661 228.045 656.473 220.305 656.474 216.898V106.349C656.474 101.704 647.803 93.6525 644.396 93.6523H638.203V85.9111C646.254 85.2918 666.691 79.098 675.672 74.7627H677.221L683.724 98.917C696.729 85.9111 710.664 74.1436 725.838 74.1436C742.56 74.1436 753.088 85.2918 756.494 99.2266C769.19 86.2208 783.435 74.1437 798.608 74.1436ZM896.76 216.898C896.76 220.305 903.573 228.046 906.05 228.046H913.481V235.788H851.858V228.046H859.29C861.767 228.046 868.58 220.305 868.58 216.898V106.349C868.58 101.704 859.909 93.6523 856.503 93.6523H848.762V85.9111C857.432 85.2918 885.921 79.098 895.211 74.7627H896.76V216.898ZM208.403 88.3877C192.92 88.3877 182.701 104.181 182.701 130.812C182.701 184.073 200.352 225.259 222.647 225.259C238.131 225.259 248.35 209.466 248.35 182.835C248.35 129.264 230.699 88.388 208.403 88.3877ZM587.109 136.076C560.169 150.011 543.446 162.088 543.446 185.932C543.446 205.44 552.117 219.686 564.504 219.686C572.245 219.685 579.368 214.421 587.109 206.37V136.076ZM587.109 208.847V208.228H586.489L587.109 208.847ZM880.967 17.7852C891.185 17.7852 899.856 25.8359 899.856 36.6738C899.856 47.512 891.186 55.5634 880.967 55.5635C870.748 55.5635 862.077 47.512 862.077 36.6738C862.077 25.8358 870.748 17.7852 880.967 17.7852Z" fill="#111111"/>
</svg>
